<svg width="4" height="13" viewBox="0 0 4 13" fill="none" xmlns="http://www.w3.org/2000/svg">
<path d="M1.95442 7.12614C2.33092 7.12614 2.63613 6.82093 2.63613 6.44443C2.63613 6.06793 2.33092 5.76271 1.95442 5.76271C1.57792 5.76271 1.27271 6.06793 1.27271 6.44443C1.27271 6.82093 1.57792 7.12614 1.95442 7.12614Z" stroke="#344054" stroke-width="1.36343" stroke-linecap="round" stroke-linejoin="round"/>
<path d="M1.95442 2.35415C2.33092 2.35415 2.63613 2.04894 2.63613 1.67244C2.63613 1.29594 2.33092 0.990723 1.95442 0.990723C1.57792 0.990723 1.27271 1.29594 1.27271 1.67244C1.27271 2.04894 1.57792 2.35415 1.95442 2.35415Z" stroke="#344054" stroke-width="1.36343" stroke-linecap="round" stroke-linejoin="round"/>
<path d="M1.95442 11.8981C2.33092 11.8981 2.63613 11.5929 2.63613 11.2164C2.63613 10.8399 2.33092 10.5347 1.95442 10.5347C1.57792 10.5347 1.27271 10.8399 1.27271 11.2164C1.27271 11.5929 1.57792 11.8981 1.95442 11.8981Z" stroke="#344054" stroke-width="1.36343" stroke-linecap="round" stroke-linejoin="round"/>
</svg>
