<svg width="44" height="45" viewBox="0 0 44 45" fill="none" xmlns="http://www.w3.org/2000/svg">
<path d="M38.5 5.625H29.3333C29.3333 2.52246 26.0448 0 22 0C17.9552 0 14.6667 2.52246 14.6667 5.625H5.5C2.46354 5.625 0 7.51465 0 9.84375V40.7812C0 43.1104 2.46354 45 5.5 45H38.5C41.5365 45 44 43.1104 44 40.7812V9.84375C44 7.51465 41.5365 5.625 38.5 5.625ZM22 3.51562C23.524 3.51562 24.75 4.45605 24.75 5.625C24.75 6.79395 23.524 7.73438 22 7.73438C20.476 7.73438 19.25 6.79395 19.25 5.625C19.25 4.45605 20.476 3.51562 22 3.51562ZM33 30.2344C33 30.6211 32.5875 30.9375 32.0833 30.9375H25.6667V35.8594C25.6667 36.2461 25.2542 36.5625 24.75 36.5625H19.25C18.7458 36.5625 18.3333 36.2461 18.3333 35.8594V30.9375H11.9167C11.4125 30.9375 11 30.6211 11 30.2344V26.0156C11 25.6289 11.4125 25.3125 11.9167 25.3125H18.3333V20.3906C18.3333 20.0039 18.7458 19.6875 19.25 19.6875H24.75C25.2542 19.6875 25.6667 20.0039 25.6667 20.3906V25.3125H32.0833C32.5875 25.3125 33 25.6289 33 26.0156V30.2344ZM33 13.3594C33 13.7461 32.5875 14.0625 32.0833 14.0625H11.9167C11.4125 14.0625 11 13.7461 11 13.3594V11.9531C11 11.5664 11.4125 11.25 11.9167 11.25H32.0833C32.5875 11.25 33 11.5664 33 11.9531V13.3594Z" fill="black"/>
</svg>
