<svg width="45" height="46" viewBox="0 0 45 46" fill="none" xmlns="http://www.w3.org/2000/svg">
<path d="M21.7366 12.5299L7.81849 27.8491V44.383C7.81849 44.8111 7.94574 45.2216 8.17226 45.5243C8.39877 45.827 8.70599 45.9971 9.02633 45.9971L17.4857 45.9678C17.805 45.9657 18.1107 45.7947 18.3359 45.4922C18.5611 45.1898 18.6875 44.7804 18.6875 44.3537V34.6981C18.6875 34.27 18.8148 33.8594 19.0413 33.5567C19.2678 33.254 19.575 33.084 19.8954 33.084H24.7267C25.0471 33.084 25.3543 33.254 25.5808 33.5567C25.8073 33.8594 25.9346 34.27 25.9346 34.6981V44.3466C25.9341 44.559 25.965 44.7695 26.0254 44.9659C26.0859 45.1623 26.1748 45.3409 26.287 45.4913C26.3992 45.6417 26.5325 45.761 26.6793 45.8425C26.8261 45.9239 26.9835 45.9658 27.1424 45.9658L35.5988 45.9971C35.9192 45.9971 36.2264 45.827 36.4529 45.5243C36.6794 45.2216 36.8067 44.8111 36.8067 44.383V27.838L22.8916 12.5299C22.728 12.3537 22.5242 12.2576 22.3141 12.2576C22.104 12.2576 21.9002 12.3537 21.7366 12.5299ZM43.7216 22.9421L37.4106 15.9902V2.01676C37.4106 1.69569 37.3151 1.38776 37.1453 1.16073C36.9754 0.933698 36.745 0.806152 36.5047 0.806152H32.2773C32.037 0.806152 31.8066 0.933698 31.6367 1.16073C31.4668 1.38776 31.3714 1.69569 31.3714 2.01676V9.34194L24.6128 1.91083C23.9642 1.19756 23.1503 0.807578 22.3103 0.807578C21.4703 0.807578 20.6565 1.19756 20.0079 1.91083L0.899071 22.9421C0.807341 23.0434 0.731449 23.1679 0.675731 23.3084C0.620014 23.449 0.585562 23.6028 0.574345 23.7611C0.563129 23.9195 0.575366 24.0792 0.610359 24.2312C0.645352 24.3832 0.702415 24.5245 0.778287 24.647L2.70328 27.7744C2.77895 27.8974 2.87202 27.9992 2.97716 28.074C3.0823 28.1488 3.19746 28.1952 3.31603 28.2105C3.4346 28.2258 3.55426 28.2096 3.66817 28.163C3.78207 28.1164 3.88797 28.0403 3.97982 27.9389L21.7366 8.39363C21.9002 8.21741 22.104 8.12132 22.3141 8.12132C22.5242 8.12132 22.728 8.21741 22.8916 8.39363L40.6491 27.9389C40.7408 28.0403 40.8465 28.1165 40.9603 28.1633C41.074 28.2101 41.1936 28.2264 41.312 28.2114C41.4305 28.1964 41.5456 28.1504 41.6508 28.0759C41.7559 28.0015 41.8491 27.9001 41.9249 27.7775L43.8499 24.6501C43.9257 24.5268 43.9825 24.3848 44.0171 24.2321C44.0517 24.0794 44.0633 23.9191 44.0514 23.7604C44.0395 23.6017 44.0042 23.4477 43.9476 23.3073C43.891 23.1668 43.8142 23.0427 43.7216 22.9421Z" fill="black"/>
</svg>
