<svg width="24" height="24" viewBox="0 0 24 24" fill="none" xmlns="http://www.w3.org/2000/svg">
<path d="M2.7297 0.0810547H21.2702C21.9727 0.0810547 22.6464 0.360108 23.1431 0.856826C23.6398 1.35354 23.9189 2.02724 23.9189 2.7297V21.2702C23.9189 21.9727 23.6398 22.6464 23.1431 23.1431C22.6464 23.6398 21.9727 23.9189 21.2702 23.9189H2.7297C2.02724 23.9189 1.35354 23.6398 0.856826 23.1431C0.360108 22.6464 0.0810547 21.9727 0.0810547 21.2702V2.7297C0.0810547 2.02724 0.360108 1.35354 0.856826 0.856826C1.35354 0.360108 2.02724 0.0810547 2.7297 0.0810547ZM13.3243 13.3243V5.37835H10.6756V13.3243H13.3243ZM13.3243 18.6216V15.9729H10.6756V18.6216H13.3243Z" fill="#14BF63"/>
</svg>
