<svg width="45" height="46" viewBox="0 0 45 46" fill="none" xmlns="http://www.w3.org/2000/svg">
<path d="M18.0807 16.2383L22.811 21.1639C23.0743 21.4376 23.0743 21.8878 22.811 22.1614L21.8514 23.1589C21.5881 23.4325 21.155 23.4325 20.8917 23.1589L16.1614 18.2333L12.3144 22.232L17.0531 27.1576C17.3164 27.4313 17.3164 27.8814 17.0531 28.1551L16.0935 29.1526C15.8302 29.4262 15.3971 29.4262 15.1338 29.1526L10.3951 24.2181L8.15305 26.5485C6.68385 28.0756 5.97898 30.1765 6.19978 32.3215L6.80275 37.9356L1.16376 43.7969C0.900492 44.0706 0.900492 44.5207 1.16376 44.7944L2.12341 45.7919C2.38667 46.0655 2.81979 46.0655 3.08305 45.7919L8.71355 39.9394L14.1148 40.5662C16.1444 40.7957 18.1826 40.0895 19.6688 38.5359L35.1166 22.4792L23.5923 10.5006L18.0807 16.2383ZM44.2545 8.00254L37.5285 1.01139C37.2652 0.737741 36.8321 0.737741 36.5688 1.01139L35.6092 2.00886C35.3459 2.2825 35.3459 2.73269 35.6092 3.00634L38.0125 5.50444L34.1654 9.50317L29.3587 4.50696L27.915 3.00634C27.6517 2.73269 27.2186 2.73269 26.9553 3.00634L24.0764 5.99876C23.8131 6.27241 23.8131 6.7226 24.0764 6.99624L25.5201 8.49687L37.0444 20.4931L38.4881 21.9937C38.7514 22.2673 39.1845 22.2673 39.4477 21.9937L42.3267 18.9924C42.59 18.7188 42.59 18.2686 42.3267 17.995L36.0847 11.5069L39.9318 7.50822L42.3352 10.0063C42.5984 10.28 43.0316 10.28 43.2948 10.0063L44.2545 9.00885C44.5177 8.72638 44.5177 8.28501 44.2545 8.00254Z" fill="black"/>
</svg>
